<svg width="22" height="22" viewBox="0 0 22 22" fill="none" xmlns="http://www.w3.org/2000/svg">
<g id="Group 5">
<path id="Shape" fill-rule="evenodd" clip-rule="evenodd" d="M16.4416 15.1486L21.7306 20.4376C22.0898 20.7922 22.0898 21.3759 21.7306 21.7306C21.3714 22.0898 20.7922 22.0898 20.4331 21.7306L15.1441 16.4461C13.5457 17.7571 11.5029 18.5429 9.27143 18.5429C4.14857 18.5429 0 14.3898 0 9.27143C0 4.15306 4.14857 0 9.27143 0C14.3898 0 18.5429 4.15306 18.5429 9.27143C18.5429 11.5029 17.7527 13.5502 16.4416 15.1486ZM1.84082 9.27143C1.84082 13.3661 5.17225 16.6975 9.27143 16.6975C13.3661 16.6975 16.702 13.3661 16.702 9.27143C16.702 5.17673 13.3661 1.84082 9.27143 1.84082C5.17225 1.84082 1.84082 5.17673 1.84082 9.27143Z" fill="white"/>
</g>
</svg>
