<svg width="14" height="105" viewBox="0 0 14 105" fill="none" xmlns="http://www.w3.org/2000/svg">
<g id="Group 3">
<g id="733635">
<path id="Path" d="M13.7255 48.3791C13.2151 48.603 12.6712 48.7514 12.1042 48.8234C12.6875 48.4751 13.1327 47.9278 13.342 47.2682C12.7982 47.5924 12.1977 47.8215 11.5577 47.9493C11.0413 47.3994 10.3053 47.0588 9.50233 47.0588C7.94449 47.0588 6.69032 48.3233 6.69032 49.8734C6.69032 50.0965 6.70919 50.3109 6.75551 50.5151C4.41618 50.401 2.3462 49.2798 0.955637 47.5718C0.712868 47.993 0.570466 48.4751 0.570466 48.9941C0.570466 49.9686 1.0723 50.8325 1.82034 51.3326C1.36826 51.324 0.924755 51.1928 0.54902 50.986C0.54902 50.9946 0.54902 51.0058 0.54902 51.0169C0.54902 52.3843 1.52439 53.5201 2.80343 53.7818C2.57439 53.8444 2.32475 53.8744 2.06569 53.8744C1.88554 53.8744 1.70368 53.8641 1.53297 53.8264C1.89755 54.9407 2.93211 55.7599 4.16225 55.7865C3.2049 56.5354 1.98934 56.9867 0.673407 56.9867C0.442647 56.9867 0.221324 56.9764 0 56.9481C1.24645 57.7519 2.72365 58.2108 4.31667 58.2108C9.49461 58.2108 12.3255 53.9216 12.3255 50.2037C12.3255 50.0793 12.3212 49.9592 12.3152 49.84C12.8737 49.4436 13.3429 48.9487 13.7255 48.3791Z" fill="white"/>
<g id="1077093">
<path id="Shape" fill-rule="evenodd" clip-rule="evenodd" d="M9.50786 90H3.52894C1.58305 90 0 91.5831 0 93.5289V99.508C0 101.454 1.58305 103.037 3.52894 103.037H9.50796C11.4537 103.037 13.0368 101.454 13.0368 99.508V93.5289C13.0368 91.5831 11.4537 90 9.50786 90ZM6.5184 100.083C4.55281 100.083 2.95375 98.484 2.95375 96.5184C2.95375 94.5528 4.55281 92.9537 6.5184 92.9537C8.48399 92.9537 10.0831 94.5528 10.0831 96.5184C10.0831 98.484 8.48399 100.083 6.5184 100.083ZM9.11498 92.7411C9.11498 93.322 9.58743 93.7944 10.1683 93.7944C10.7492 93.7944 11.2217 93.322 11.2217 92.7411C11.2217 92.1602 10.7492 91.6877 10.1683 91.6877C9.58743 91.6877 9.11498 92.1602 9.11498 92.7411Z" fill="white"/>
<path id="Path_2" d="M6.5184 93.718C4.97433 93.718 3.71802 94.9742 3.71802 96.5184C3.71802 98.0625 4.97433 99.3188 6.5184 99.3188C8.06256 99.3188 9.31877 98.0625 9.31877 96.5184C9.31877 94.9742 8.06256 93.718 6.5184 93.718Z" fill="white"/>
</g>
</g>
<g id="59439">
<path id="Path_3" d="M10.9757 0.003396L8.85912 0C6.48124 0 4.94455 1.57659 4.94455 4.01679V5.86879H2.81645C2.63256 5.86879 2.48364 6.01788 2.48364 6.20177V8.88512C2.48364 9.06901 2.63273 9.21793 2.81645 9.21793H4.94455V15.9889C4.94455 16.1728 5.09347 16.3217 5.27736 16.3217H8.05393C8.23782 16.3217 8.38674 16.1726 8.38674 15.9889V9.21793H10.875C11.0589 9.21793 11.2078 9.06901 11.2078 8.88512L11.2088 6.20177C11.2088 6.11347 11.1737 6.02891 11.1113 5.96643C11.049 5.90394 10.9641 5.86879 10.8758 5.86879H8.38674V4.29882C8.38674 3.54423 8.56655 3.16116 9.54952 3.16116L10.9753 3.16066C11.1591 3.16066 11.308 3.01157 11.308 2.82785V0.336204C11.308 0.15265 11.1592 0.0037356 10.9757 0.003396Z" fill="white"/>
</g>
</g>
</svg>
